{
    "asset" : {
        "generator" : "Khronos glTF Blender I/O v1.8.19",
        "version" : "2.0"
    },
    "scene" : 0,
    "scenes" : [
        {
            "name" : "Scene",
            "nodes" : [
                10
            ]
        }
    ],
    "nodes" : [
        {
            "mesh" : 0,
            "name" : "bits_metal_0"
        },
        {
            "children" : [
                0
            ],
            "name" : "bits",
            "rotation" : [
                -0.7071068286895752,
                0,
                0,
                0.7071067094802856
            ],
            "scale" : [
                28.212011337280273,
                15.957303047180176,
                109.52072143554688
            ],
            "translation" : [
                -11.517971992492676,
                476.18511962890625,
                0
            ]
        },
        {
            "mesh" : 1,
            "name" : "bow_metal_0"
        },
        {
            "children" : [
                2
            ],
            "name" : "bow",
            "rotation" : [
                -0.5000000596046448,
                -0.5000000596046448,
                0.4999999403953552,
                0.5
            ],
            "scale" : [
                100,
                19.792240142822266,
                100
            ],
            "translation" : [
                0,
                0,
                -1.0623947673593648e-05
            ]
        },
        {
            "mesh" : 2,
            "name" : "shaft_metal_0"
        },
        {
            "children" : [
                4
            ],
            "name" : "shaft",
            "rotation" : [
                -0.7071068286895752,
                0,
                0,
                0.7071067094802856
            ],
            "scale" : [
                16.10948371887207,
                16.10948371887207,
                346.1840515136719
            ],
            "translation" : [
                0,
                243.9439239501953,
                0
            ]
        },
        {
            "mesh" : 3,
            "name" : "skulls_metal_0"
        },
        {
            "children" : [
                6
            ],
            "name" : "skulls",
            "rotation" : [
                -0.6743838787078857,
                0,
                0,
                0.7383809685707092
            ],
            "scale" : [
                46.303375244140625,
                6.004013538360596,
                46.26696014404297
            ],
            "translation" : [
                0,
                5.002474784851074,
                22.756853103637695
            ]
        },
        {
            "children" : [
                1,
                3,
                5,
                7
            ],
            "name" : "RootNode"
        },
        {
            "children" : [
                8
            ],
            "name" : "e6af16d2003d4196a1f49ae70e9f7457.fbx",
            "rotation" : [
                0.7071068286895752,
                0,
                0,
                0.7071068286895752
            ]
        },
        {
            "children" : [
                9
            ],
            "name" : "Sketchfab_model",
            "rotation" : [
                -0.7071068286895752,
                0,
                0,
                0.7071068286895752
            ],
            "scale" : [
                0.0752028077840805,
                0.0752028077840805,
                0.0752028077840805
            ],
            "translation" : [
                -0.2885255813598633,
                1.0576095581054688,
                0.17663078010082245
            ]
        }
    ],
    "materials" : [
        {
            "doubleSided" : true,
            "name" : "metal",
            "pbrMetallicRoughness" : {}
        }
    ],
    "meshes" : [
        {
            "name" : "bits_metal_0",
            "primitives" : [
                {
                    "attributes" : {
                        "POSITION" : 0,
                        "NORMAL" : 1,
                        "TEXCOORD_0" : 2
                    },
                    "indices" : 3,
                    "material" : 0
                }
            ]
        },
        {
            "name" : "bow_metal_0",
            "primitives" : [
                {
                    "attributes" : {
                        "POSITION" : 4,
                        "NORMAL" : 5,
                        "TEXCOORD_0" : 6,
                        "TEXCOORD_1" : 7,
                        "TEXCOORD_2" : 8
                    },
                    "indices" : 9,
                    "material" : 0
                }
            ]
        },
        {
            "name" : "shaft_metal_0",
            "primitives" : [
                {
                    "attributes" : {
                        "POSITION" : 10,
                        "NORMAL" : 11,
                        "TEXCOORD_0" : 12
                    },
                    "indices" : 13,
                    "material" : 0
                }
            ]
        },
        {
            "name" : "skulls_metal_0",
            "primitives" : [
                {
                    "attributes" : {
                        "POSITION" : 14,
                        "NORMAL" : 15,
                        "TEXCOORD_0" : 16,
                        "TEXCOORD_1" : 17
                    },
                    "indices" : 18,
                    "material" : 0
                }
            ]
        }
    ],
    "accessors" : [
        {
            "bufferView" : 0,
            "componentType" : 5126,
            "count" : 133,
            "max" : [
                0.40293729305267334,
                1,
                0.9959330558776855
            ],
            "min" : [
                -3.9298582077026367,
                -1,
                -0.5113227367401123
            ],
            "type" : "VEC3"
        },
        {
            "bufferView" : 1,
            "componentType" : 5126,
            "count" : 133,
            "type" : "VEC3"
        },
        {
            "bufferView" : 2,
            "componentType" : 5126,
            "count" : 133,
            "type" : "VEC2"
        },
        {
            "bufferView" : 3,
            "componentType" : 5123,
            "count" : 252,
            "type" : "SCALAR"
        },
        {
            "bufferView" : 4,
            "componentType" : 5126,
            "count" : 634,
            "max" : [
                1.004556655883789,
                0.9999998211860657,
                1.063401222229004
            ],
            "min" : [
                -1.0956953763961792,
                -1.0000008344650269,
                -1.063401222229004
            ],
            "type" : "VEC3"
        },
        {
            "bufferView" : 5,
            "componentType" : 5126,
            "count" : 634,
            "type" : "VEC3"
        },
        {
            "bufferView" : 6,
            "componentType" : 5126,
            "count" : 634,
            "type" : "VEC2"
        },
        {
            "bufferView" : 7,
            "componentType" : 5126,
            "count" : 634,
            "type" : "VEC2"
        },
        {
            "bufferView" : 8,
            "componentType" : 5126,
            "count" : 634,
            "type" : "VEC2"
        },
        {
            "bufferView" : 9,
            "componentType" : 5123,
            "count" : 672,
            "type" : "SCALAR"
        },
        {
            "bufferView" : 10,
            "componentType" : 5126,
            "count" : 779,
            "max" : [
                1.5757849216461182,
                1.5757849216461182,
                1
            ],
            "min" : [
                -1.5757849216461182,
                -1.5757849216461182,
                -1
            ],
            "type" : "VEC3"
        },
        {
            "bufferView" : 11,
            "componentType" : 5126,
            "count" : 779,
            "type" : "VEC3"
        },
        {
            "bufferView" : 12,
            "componentType" : 5126,
            "count" : 779,
            "type" : "VEC2"
        },
        {
            "bufferView" : 13,
            "componentType" : 5123,
            "count" : 804,
            "type" : "SCALAR"
        },
        {
            "bufferView" : 14,
            "componentType" : 5126,
            "count" : 979,
            "max" : [
                1,
                7.632721424102783,
                0.9982681274414062
            ],
            "min" : [
                -1,
                -0.19184207916259766,
                -1.076939582824707
            ],
            "type" : "VEC3"
        },
        {
            "bufferView" : 15,
            "componentType" : 5126,
            "count" : 979,
            "type" : "VEC3"
        },
        {
            "bufferView" : 16,
            "componentType" : 5126,
            "count" : 979,
            "type" : "VEC2"
        },
        {
            "bufferView" : 17,
            "componentType" : 5126,
            "count" : 979,
            "type" : "VEC2"
        },
        {
            "bufferView" : 18,
            "componentType" : 5123,
            "count" : 1110,
            "type" : "SCALAR"
        }
    ],
    "bufferViews" : [
        {
            "buffer" : 0,
            "byteLength" : 1596,
            "byteOffset" : 0
        },
        {
            "buffer" : 0,
            "byteLength" : 1596,
            "byteOffset" : 1596
        },
        {
            "buffer" : 0,
            "byteLength" : 1064,
            "byteOffset" : 3192
        },
        {
            "buffer" : 0,
            "byteLength" : 504,
            "byteOffset" : 4256
        },
        {
            "buffer" : 0,
            "byteLength" : 7608,
            "byteOffset" : 4760
        },
        {
            "buffer" : 0,
            "byteLength" : 7608,
            "byteOffset" : 12368
        },
        {
            "buffer" : 0,
            "byteLength" : 5072,
            "byteOffset" : 19976
        },
        {
            "buffer" : 0,
            "byteLength" : 5072,
            "byteOffset" : 25048
        },
        {
            "buffer" : 0,
            "byteLength" : 5072,
            "byteOffset" : 30120
        },
        {
            "buffer" : 0,
            "byteLength" : 1344,
            "byteOffset" : 35192
        },
        {
            "buffer" : 0,
            "byteLength" : 9348,
            "byteOffset" : 36536
        },
        {
            "buffer" : 0,
            "byteLength" : 9348,
            "byteOffset" : 45884
        },
        {
            "buffer" : 0,
            "byteLength" : 6232,
            "byteOffset" : 55232
        },
        {
            "buffer" : 0,
            "byteLength" : 1608,
            "byteOffset" : 61464
        },
        {
            "buffer" : 0,
            "byteLength" : 11748,
            "byteOffset" : 63072
        },
        {
            "buffer" : 0,
            "byteLength" : 11748,
            "byteOffset" : 74820
        },
        {
            "buffer" : 0,
            "byteLength" : 7832,
            "byteOffset" : 86568
        },
        {
            "buffer" : 0,
            "byteLength" : 7832,
            "byteOffset" : 94400
        },
        {
            "buffer" : 0,
            "byteLength" : 2220,
            "byteOffset" : 102232
        }
    ],
    "buffers" : [
        {
            "byteLength" : 104452,
            "uri" : "data:application/octet-stream;base64,"
        }
    ]
}
